# xmcd CD Database Entry
#
# Track frame offsets:
# 150
# 16252
# 27957
# 45130
# 59192
# 83735
# 99697
# 119732
# 139772
# 158410
# 177980
# 195835
# 214917
# 233475
#
# Disc length: 3484 seconds
#
# Revision: 3
# Processed by: cddbd v1.5.1PL0 Copyright (c) Steve Scherf et al.
# Submitted via: tcd 2.0b
#
DISCID=b10d9a0e
DTITLE=Cassia Eller 
DYEAR=98
DGENRE=Rock
TTITLE0=E.C.T.
TTITLE1=Nenhum Roberto
TTITLE2=Eu sou neguinha
TTITLE3=N s
TTITLE4=1 de Julho
TTITLE5=Na cad ncia do samba
TTITLE6=Por enquanto
TTITLE7=Try a little tenderness
TTITLE8=Malandragem
TTITLE9=N o amo ningu m
TTITLE10=M sica urbana II
TTITLE11=Socorro
TTITLE12=Metr  linha 743
TTITLE13=Coronel Ant nio Bento
EXTD=YEAR: 98  ID3G:  17
EXTT0=
EXTT1=
EXTT2=
EXTT3=
EXTT4=
EXTT5=
EXTT6=
EXTT7=
EXTT8=
EXTT9=
EXTT10=
EXTT11=
EXTT12=
EXTT13=
PLAYORDER=
